<?xml version="1.0" standalone="no"?>
<!DOCTYPE svg PUBLIC "-//W3C//DTD SVG 20010904//EN"
 "http://www.w3.org/TR/2001/REC-SVG-20010904/DTD/svg10.dtd">
<svg version="1.0" xmlns="http://www.w3.org/2000/svg"
 width="192.000000pt" height="192.000000pt" viewBox="0 0 192.000000 192.000000"
 preserveAspectRatio="xMidYMid meet">
<metadata>
Created by potrace 1.10, written by Peter Selinger 2001-2011
</metadata>
<g transform="translate(0.000000,192.000000) scale(0.100000,-0.100000)"
fill="#000000" stroke="none">
<path d="M351 1228 c-80 -54 -126 -207 -103 -340 23 -134 86 -213 171 -213 39
0 47 5 87 48 106 117 106 363 1 474 -54 57 -104 67 -156 31z m116 -34 c25 -16
56 -68 46 -78 -4 -3 -30 -6 -58 -6 -41 0 -58 -5 -78 -24 l-27 -25 -20 26 c-26
34 -25 45 7 83 43 51 77 57 130 24z m-132 -172 c9 -29 19 -51 21 -49 2 2 12
28 23 58 l18 54 71 3 c68 3 72 2 72 -18 0 -19 -4 -21 -25 -16 l-25 6 0 -121
c0 -86 -3 -120 -12 -117 -7 3 -11 42 -12 118 l-1 115 -25 0 c-20 0 -28 -8 -44
-45 -10 -25 -21 -76 -25 -114 -8 -88 -31 -104 -31 -22 0 35 -9 80 -25 123 -14
37 -23 74 -20 82 8 21 20 4 40 -57z m215 -65 c0 -124 -44 -222 -109 -245 -58
-20 -127 40 -152 131 -15 55 -19 120 -9 136 10 17 44 -83 36 -106 -8 -19 19
-63 39 -63 20 0 28 17 36 75 4 27 15 68 25 90 l18 40 6 -93 c4 -67 9 -95 20
-102 44 -28 60 3 60 113 0 46 3 87 7 90 17 18 23 1 23 -66z"/>
<path d="M902 964 l3 -127 32 -3 c43 -5 63 24 63 92 0 68 -27 106 -61 86 -21
-14 -22 -13 -17 32 4 35 2 46 -9 46 -11 0 -13 -23 -11 -126z m66 14 c17 -17
15 -93 -3 -108 -27 -22 -45 -4 -45 44 0 71 18 94 48 64z"/>
<path d="M1620 986 c0 -118 10 -156 40 -156 11 0 20 7 20 15 0 8 -7 15 -15 15
-22 0 -28 41 -23 141 4 71 3 89 -8 89 -11 0 -14 -22 -14 -104z"/>
<path d="M729 1073 c0 -5 0 -42 1 -84 2 -96 -7 -131 -30 -127 -22 4 -27 -14
-7 -26 12 -8 21 -6 34 7 15 14 19 39 21 127 3 75 0 110 -7 110 -6 0 -11 -3
-12 -7z"/>
<path d="M1090 955 c0 -72 4 -125 9 -125 6 0 11 21 13 47 2 37 7 47 23 49 48
7 72 86 39 132 -11 15 -25 22 -50 22 l-34 0 0 -125z m74 73 c15 -25 -4 -72
-32 -76 -20 -3 -22 1 -22 48 0 47 2 51 21 48 12 -2 27 -11 33 -20z"/>
<path d="M1428 1064 c-5 -4 -8 -17 -8 -29 0 -11 -5 -26 -11 -32 -8 -8 -8 -13
0 -17 6 -4 11 -29 11 -56 0 -64 14 -100 40 -100 26 0 26 26 0 33 -17 4 -20 14
-20 61 0 43 3 56 15 56 8 0 15 7 15 15 0 8 -6 15 -14 15 -9 0 -16 12 -18 31
-2 17 -6 27 -10 23z"/>
<path d="M797 1003 c-48 -54 -25 -173 33 -173 40 0 65 102 39 153 -22 40 -47
47 -72 20z m53 -32 c24 -45 1 -121 -33 -108 -9 3 -19 22 -23 42 -12 64 30 114
56 66z"/>
<path d="M1234 1012 c-51 -33 -42 -172 12 -180 35 -5 59 33 59 93 0 70 -34
112 -71 87z m47 -49 c13 -35 3 -92 -18 -100 -22 -9 -43 24 -43 67 0 60 42 83
61 33z"/>
<path d="M1330 925 c0 -111 16 -128 22 -23 3 60 7 73 26 86 12 8 22 18 22 23
0 16 -29 9 -39 -8 -10 -17 -10 -17 -11 0 0 9 -4 17 -10 17 -6 0 -10 -38 -10
-95z"/>
<path d="M1524 1013 c-50 -35 -42 -171 10 -181 10 -2 23 2 28 10 7 10 11 10
15 1 13 -34 19 -5 15 75 -2 48 -5 88 -6 89 -6 7 -53 12 -62 6z m44 -86 c2 -46
0 -58 -14 -64 -35 -13 -58 62 -33 108 6 11 18 19 27 17 13 -2 18 -16 20 -61z"/>
</g>
</svg>
